<?xml version="1.0" encoding="utf-8"?>
<!-- Uploaded to: SVG Repo, www.svgrepo.com, Generator: SVG Repo Mixer Tools -->
<svg fill="#000000" version="1.1" id="Layer_1" xmlns="http://www.w3.org/2000/svg" xmlns:xlink="http://www.w3.org/1999/xlink" 
	 width="800px" height="800px" viewBox="0 0 256 253" enable-background="new 0 0 256 253" xml:space="preserve">
<path d="M103.11,162.68c0.54,1.38,0.62,2.68,0.24,3.91c-0.39,1.23-1.28,2.12-2.68,2.67c-1.44,0.57-2.73,0.54-3.88-0.1
	c-1.15-0.64-1.99-1.63-2.52-2.99l-0.97-2.45c-0.54-1.38-0.62-2.69-0.23-3.95c0.38-1.25,1.29-2.16,2.71-2.72
	c1.4-0.55,2.67-0.51,3.82,0.14c1.15,0.65,2,1.67,2.54,3.04L103.11,162.68z M179.8,121.27l17.9,11.79l-8.73,47.23l-99.43,42
	l-31.18-73.66l98.67-41.94l15.14,9.97c-0.26,1.21-0.54,2.43-0.86,3.67c-2,7.69-4.9,14.04-8.26,18.38
	c-3.32-1.69-7.33-1.96-11.03-0.39c-6.65,2.81-9.76,10.48-6.95,17.13c2.82,6.64,10.49,9.75,17.14,6.94
	c6.64-2.81,9.75-10.48,6.94-17.13c-0.07-0.15-0.13-0.3-0.2-0.44C174.02,138.72,177.64,130.1,179.8,121.27z M108.57,168.37
	c1.03-2.5,1.01-5.11-0.06-7.82l-0.96-2.45c-1.08-2.73-2.86-4.67-5.33-5.8c-2.46-1.13-5.22-1.1-8.28,0.11
	c-3.03,1.19-5.05,3.05-6.08,5.58c-1.02,2.52-1,5.14,0.07,7.85l0.97,2.45c1.07,2.71,2.84,4.63,5.31,5.75
	c2.48,1.11,5.24,1.07,8.29-0.13C105.51,172.72,107.53,170.87,108.57,168.37z M112.76,195.25l8.33-45.1l-4.88-0.73l-8.32,45.11
	L112.76,195.25z M141.06,177.83l-0.98-2.48c-1.07-2.71-2.84-4.63-5.31-5.76c-2.47-1.14-5.23-1.1-8.28,0.1
	c-3.01,1.19-5.03,3.05-6.07,5.58c-1.03,2.52-1.02,5.14,0.04,7.83l0.98,2.48c1.07,2.71,2.84,4.63,5.32,5.76
	c2.48,1.13,5.25,1.09,8.3-0.12c3.01-1.18,5.03-3.03,6.06-5.53C142.16,183.19,142.14,180.57,141.06,177.83z M134.7,177.47
	c-0.53-1.35-1.37-2.35-2.52-3c-1.15-0.65-2.44-0.7-3.86-0.14c-1.42,0.57-2.32,1.47-2.71,2.73c-0.39,1.25-0.31,2.56,0.22,3.92
	l0.98,2.48c0.54,1.35,1.39,2.35,2.56,2.99s2.46,0.68,3.86,0.13c1.48-0.58,2.4-1.48,2.76-2.69c0.36-1.2,0.25-2.51-0.31-3.94
	L134.7,177.47z M232,98.554V233h22v18H2v-18h22V98.576C11.625,94.302,2,82.678,2,69v-8h252v8
	C253.699,83.158,244.89,94.609,232,98.554z M214,98.5c-13.228-3.738-22.954-15.728-22.954-30.154c0,5.677-2.85,14.462-8.932,21.308
	c0.448,10.993-0.269,24.167-2.474,31.436l-7.41-4.58c1.094-4.938,1.626-12.651,1.631-20.224c-3.983,2.168-8.694,3.508-14.179,3.508
	c-24.053,0-31.464-20.395-31.464-31.447c0,11.855-9.513,31.47-31.202,31.47c-24.971,0-31.727-24.992-31.727-31.47
	c0,14.549-9.888,26.62-23.29,30.248V233h172V98.5z M222.832,22H223V2H34v20L2,54h252L222.832,22z"/>
</svg>