<?xml version="1.0" encoding="utf-8"?>
<!-- Uploaded to: SVG Repo, www.svgrepo.com, Generator: SVG Repo Mixer Tools -->
<svg fill="#000000" version="1.1" id="Layer_1" xmlns="http://www.w3.org/2000/svg" xmlns:xlink="http://www.w3.org/1999/xlink" 
	 width="800px" height="800px" viewBox="0 0 256 253" enable-background="new 0 0 256 253" xml:space="preserve">
<path d="M173.438,190.05l-27.011-27.108l27.011-27.011V190.05z M89.113,195.182l27.011-27.011l1.162,1.065
	c6.39,6.099,16.555,6.099,22.654,0l1.162-1.162l27.205,27.011H89.113V195.182z M84.272,135.932l26.914,27.011L84.175,190.05
	L84.272,135.932z M168.306,130.8l-33.207,33.207c-3.388,3.388-9.391,3.292-12.876-0.097l-33.11-33.11H168.306z M76.914,202.443
	h104.172v-79H76.914V202.443z M2,69c0,13.678,9.625,25.302,22,29.576V233H2v18h252v-18h-22V98.554
	c12.89-3.945,21.699-15.396,22-29.554v-8H2V69z M65.29,68.346c0,6.477,6.755,31.47,31.727,31.47
	c21.689,0,31.202-19.615,31.202-31.47c0,11.052,7.41,31.447,31.464,31.447c21.733,0,31.363-20.999,31.363-31.447
	c0,14.425,9.726,26.416,22.954,30.154V233H42V98.594C55.402,94.966,65.29,82.895,65.29,68.346z M222.832,22H223V2H34v20L2,54h252
	L222.832,22z"/>
</svg>