<?xml version="1.0" encoding="utf-8"?>
<!-- Uploaded to: SVG Repo, www.svgrepo.com, Generator: SVG Repo Mixer Tools -->
<svg fill="#000000" version="1.1" id="Layer_1" xmlns="http://www.w3.org/2000/svg" xmlns:xlink="http://www.w3.org/1999/xlink" 
	 width="800px" height="800px" viewBox="0 0 256 253" enable-background="new 0 0 256 253" xml:space="preserve">
<path d="M157.003,147.97l29.958-7.456l-0.331-0.33c-3.928-3.919-5.932-1.919-9.86-5.838c-3.928-3.919-1.924-5.919-5.852-9.838
	c-3.928-3.919-5.932-1.915-9.86-5.834s-1.919-5.919-5.847-9.838l-0.336-0.335l-7.473,29.896l-3.219-3.217
	c-4.434-4.419-11.613-4.419-16.047,0l-32.085,32.014c-4.429,4.419-4.429,11.588,0,16.007l3.068,3.061l-30.081,7.225l0.331,0.33
	c3.928,3.919,5.932,1.919,9.86,5.838c3.928,3.919,1.924,5.919,5.852,9.838c3.928,3.92,5.932,1.919,9.86,5.834
	c3.928,3.919,1.919,5.919,5.847,9.838l0.336,0.335l7.709-29.547l3.261,3.254c4.434,4.424,11.613,4.424,16.042,0l32.089-32.014
	c4.429-4.419,4.429-11.588,0-16.007L157.003,147.97z M108.833,170.382l-3.342-3.335l3.729-3.721l3.342,3.339L108.833,170.382z
	 M117.039,162.199l-3.342-3.335l17.607-17.573l3.342,3.334L117.039,162.199z M2.166,69c0,13.678,9.625,25.302,22,29.576V233h-22v18
	h252v-18h-22V98.554c12.89-3.945,21.699-15.396,22-29.554v-8h-252V69z M65.456,68.346c0,6.477,6.755,31.47,31.727,31.47
	c21.689,0,31.202-19.615,31.202-31.47c0,11.052,7.41,31.447,31.464,31.447c21.733,0,31.363-20.999,31.363-31.447
	c0,14.425,9.726,26.416,22.954,30.154V233h-172V98.594C55.568,94.966,65.456,82.895,65.456,68.346z M254.166,54h-252l32-32V2h189v20
	h-0.168L254.166,54z"/>
</svg>