<?xml version="1.0" encoding="utf-8"?>
<!-- Uploaded to: SVG Repo, www.svgrepo.com, Generator: SVG Repo Mixer Tools -->
<svg fill="#000000" version="1.1" id="Layer_1" xmlns="http://www.w3.org/2000/svg" xmlns:xlink="http://www.w3.org/1999/xlink" 
	 width="800px" height="800px" viewBox="0 0 256 253" enable-background="new 0 0 256 253" xml:space="preserve">
<path d="M102.416,148.646l-8.293-21.305l0.027-0.031h26.819L102.416,148.646z M90.278,131.592l-14.922,17.16h21.602L90.278,131.592z
	 M109.2,148.752h37.599l-18.644-21.441h-0.31L109.2,148.752z M161.968,127.447l-0.118-0.136h-26.821l18.624,21.418L161.968,127.447z
	 M180.644,148.752l-14.833-17.057l-6.664,17.057H180.644z M157.121,154.112l-22.96,58.768l46.616-58.768H157.121z M75.223,154.112
	l46.646,58.81l-22.892-58.81H75.223z M127.973,214.311l23.579-60.199h-47.009L127.973,214.311z M2,69
	c0,13.678,9.625,25.302,22,29.576V233H2v18h252v-18h-22V98.554c12.89-3.945,21.699-15.396,22-29.554v-8H2V69z M65.29,68.346
	c0,6.477,6.755,31.47,31.727,31.47c21.689,0,31.202-19.615,31.202-31.47c0,11.052,7.41,31.447,31.464,31.447
	c21.733,0,31.363-20.999,31.363-31.447c0,14.425,9.726,26.416,22.954,30.154V233H42V98.594C55.402,94.966,65.29,82.895,65.29,68.346
	z M222.832,22H223V2H34v20L2,54h252L222.832,22z"/>
</svg>