<?xml version="1.0" encoding="utf-8"?>
<!-- Uploaded to: SVG Repo, www.svgrepo.com, Generator: SVG Repo Mixer Tools -->
<svg fill="#000000" version="1.1" id="Layer_1" xmlns="http://www.w3.org/2000/svg" xmlns:xlink="http://www.w3.org/1999/xlink" 
	 width="800px" height="800px" viewBox="0 0 256 253" enable-background="new 0 0 256 253" xml:space="preserve">
<path d="M128,114c-27.89,0-50.5,22.61-50.5,50.5S100.11,215,128,215s50.5-22.61,50.5-50.5S155.89,114,128,114z M157.41,173.23
	h-20.68v20.68h-17.46v-20.68H98.59v-17.46h20.68v-20.68h17.46v20.68h20.68V173.23z M2.112,69c0,13.678,9.625,25.302,22,29.576V233
	h-22v18h252v-18h-22V98.554c12.89-3.945,21.699-15.396,22-29.554v-8h-252V69z M65.402,68.346c0,6.477,6.755,31.47,31.727,31.47
	c21.689,0,31.202-19.615,31.202-31.47c0,11.052,7.41,31.447,31.464,31.447c21.733,0,31.363-20.999,31.363-31.447
	c0,14.425,9.726,26.416,22.954,30.154V233h-172V98.594C55.514,94.966,65.402,82.895,65.402,68.346z M254.112,54h-252l32-32V2h189v20
	h-0.168L254.112,54z"/>
</svg>