<?xml version="1.0" encoding="utf-8"?>
<!-- Uploaded to: SVG Repo, www.svgrepo.com, Generator: SVG Repo Mixer Tools -->
<svg fill="#000000" version="1.1" id="Layer_1" xmlns="http://www.w3.org/2000/svg" xmlns:xlink="http://www.w3.org/1999/xlink" 
	 width="800px" height="800px" viewBox="0 0 256 253" enable-background="new 0 0 256 253" xml:space="preserve">
<path d="M183.353,154.735l-1.533-1.533c-4.517-4.517-10.05-7.738-16.15-9.426c3.913-5.914,6.81-12.383,8.63-19.275
	c0.29-1.099-0.029-2.281-0.834-3.084c-0.803-0.803-1.985-1.123-3.085-0.833c-6.89,1.819-13.36,4.717-19.275,8.63
	c-1.689-6.1-4.909-11.633-9.426-16.15l-1.344-1.344c-0.874-0.873-2.183-1.146-3.332-0.696c-1.15,0.45-1.924,1.54-1.972,2.774
	l-0.747,19.385c-13.321-6.268-27.719-5.283-39.472,6.471c-16.707,16.707-28.793,61.965-15.123,75.629
	c13.816,13.816,58.923,1.584,75.629-15.123c11.78-11.784,12.742-26.217,6.428-39.564l19.605-0.755
	c1.188-0.046,2.236-0.79,2.67-1.897C184.456,156.836,184.194,155.577,183.353,154.735z M97.459,167.984
	c-2.192,2.192-6.231,3.182-7.199,2.215c-0.902-0.902,0.254-5.238,2.215-7.199c2.1-2.1,4.399-1.692,5.538-0.554
	C99.118,163.552,99.766,165.676,97.459,167.984z M102.668,149.487c-0.902-0.902,0.254-5.238,2.215-7.199
	c2.1-2.1,4.399-1.692,5.538-0.554c1.106,1.106,1.754,3.23-0.554,5.538C107.675,149.465,103.635,150.455,102.668,149.487z
	 M115.05,163.453c-2.192,2.192-6.231,3.182-7.199,2.215c-0.902-0.902,0.253-5.238,2.215-7.199c2.1-2.1,4.399-1.692,5.538-0.554
	C116.709,159.021,117.357,161.146,115.05,163.453z M155.14,156.532c-4.487,0.166-8.886-1.549-12.062-4.726
	c-3.177-3.177-4.899-7.574-4.726-12.063l0.887-23.005c4.336,4.572,7.221,10.245,8.362,16.461c0.135,0.731,0.636,1.342,1.326,1.616
	c0.691,0.274,1.475,0.173,2.073-0.267c5.652-4.154,11.9-7.266,18.599-9.264c-1.999,6.7-5.11,12.949-9.263,18.599
	c-0.441,0.599-0.542,1.382-0.267,2.074c0.274,0.691,0.885,1.192,1.616,1.326c6.216,1.14,11.889,4.025,16.461,8.361L155.14,156.532z
	 M2,69c0,13.678,9.625,25.302,22,29.576V233H2v18h252v-18h-22V98.554c12.89-3.945,21.699-15.396,22-29.554v-8H2V69z M65.29,68.346
	c0,6.477,6.755,31.47,31.727,31.47c21.689,0,31.202-19.615,31.202-31.47c0,11.052,7.41,31.447,31.464,31.447
	c21.733,0,31.363-20.999,31.363-31.447c0,14.425,9.726,26.416,22.954,30.154V233H42V98.594C55.402,94.966,65.29,82.895,65.29,68.346
	z M254,54H2l32-32V2h189v20h-0.168L254,54z"/>
</svg>