<?xml version="1.0" encoding="utf-8"?>
<!-- Uploaded to: SVG Repo, www.svgrepo.com, Generator: SVG Repo Mixer Tools -->
<svg fill="#000000" version="1.1" id="Layer_1" xmlns="http://www.w3.org/2000/svg" xmlns:xlink="http://www.w3.org/1999/xlink" 
	 width="800px" height="800px" viewBox="0 0 256 253" enable-background="new 0 0 256 253" xml:space="preserve">
<path d="M183.924,179.672l-15.936-53.054h-36.376v-6.582c0-1.782-1.782-3.613-3.613-3.613c-1.782,0-3.613,1.782-3.613,3.613v6.632
	H88.012l-15.936,53.004h-0.346h-1.782c0,12.026,9.75,21.825,21.825,21.825s21.825-9.75,21.825-21.825h-2.079h-0.346l-15.045-49.738
	h28.556v77.403H96.425v11.086h3.613H128h27.962h3.613v-11.086h-28.259v-77.403h28.556l-15.045,49.738h-0.346h-2.079
	c0,12.026,9.75,21.825,21.825,21.825s21.825-9.75,21.825-21.825h-1.782H183.924L183.924,179.672z M106.224,179.672H77.322
	l14.303-48.253L106.224,179.672z M149.776,179.672l14.6-48.253l14.303,48.253H149.776z M2,69c0,13.678,9.625,25.302,22,29.576V233H2
	v18h252v-18h-22V98.554c12.89-3.945,21.699-15.396,22-29.554v-8H2V69z M65.29,68.346c0,6.477,6.755,31.47,31.727,31.47
	c21.689,0,31.202-19.615,31.202-31.47c0,11.052,7.41,31.447,31.464,31.447c21.733,0,31.363-20.999,31.363-31.447
	c0,14.425,9.726,26.416,22.954,30.154V233H42V98.594C55.402,94.966,65.29,82.895,65.29,68.346z M254,54H2l32-32V2h189v20h-0.168
	L254,54z"/>
</svg>