<?xml version="1.0" encoding="utf-8"?>
<!-- Uploaded to: SVG Repo, www.svgrepo.com, Generator: SVG Repo Mixer Tools -->
<svg fill="#000000" version="1.1" id="Layer_1" xmlns="http://www.w3.org/2000/svg" xmlns:xlink="http://www.w3.org/1999/xlink" 
	 width="800px" height="800px" viewBox="0 0 256 253" enable-background="new 0 0 256 253" xml:space="preserve">
<path d="M98.519,144.944c6.587-3.185,11.741-9.04,13.864-16.413l1.779-6.177h14.607h14.607l1.779,6.177
	c2.124,7.375,7.28,13.231,13.869,16.415c-2.274,2.717-4.769,5.263-7.463,7.59c-4.09,3.533-8.728,6.662-13.783,9.298
	c-1.889,0.985-3.87,1.907-5.907,2.772c-0.808-0.772-1.897-1.252-3.102-1.252c-1.204,0-2.292,0.48-3.1,1.25
	c-2.035-0.864-4.015-1.785-5.903-2.77c-5.055-2.636-9.693-5.765-13.783-9.298C103.29,150.208,100.794,147.662,98.519,144.944z
	 M177.462,155.04c-0.95,15.371-7.735,52.413-48.693,67.581c-40.957-15.168-47.743-52.209-48.693-67.581
	c-0.25-4.039,2.945-7.455,6.991-7.455h0c2.489,0,4.906-0.368,7.214-1.026c2.669,3.33,5.635,6.44,8.881,9.243
	c4.343,3.751,9.258,7.069,14.609,9.859c2.104,1.097,4.314,2.121,6.587,3.074c0.41,2.063,2.228,3.619,4.411,3.619
	c2.182,0,4-1.554,4.411-3.616c2.276-0.954,4.488-1.979,6.594-3.077c5.351-2.791,10.266-6.108,14.609-9.859
	c3.245-2.803,6.211-5.912,8.879-9.242c2.306,0.656,4.721,1.024,7.208,1.024h0C174.518,147.584,177.712,151,177.462,155.04z
	 M135.27,181.221c0-3.59-2.91-6.5-6.5-6.5c-3.59,0-6.5,2.91-6.5,6.5s2.91,6.5,6.5,6.5C132.36,187.721,135.27,184.811,135.27,181.221
	z M2,61h252v8c-0.301,14.158-9.11,25.609-22,29.554V233h22v18H2v-18h22V98.576C11.625,94.302,2,82.678,2,69V61z M42,98.594V233h172
	V98.5c-13.228-3.738-22.954-15.728-22.954-30.154c0,10.448-9.63,31.447-31.363,31.447c-24.053,0-31.464-20.395-31.464-31.447
	c0,11.855-9.513,31.47-31.202,31.47c-24.971,0-31.727-24.992-31.727-31.47C65.29,82.895,55.402,94.966,42,98.594z M222.832,22H223V2
	H34v20L2,54h252L222.832,22z"/>
</svg>