<?xml version="1.0" encoding="utf-8"?>
<!-- Uploaded to: SVG Repo, www.svgrepo.com, Generator: SVG Repo Mixer Tools -->
<svg fill="#000000" version="1.1" id="Layer_1" xmlns="http://www.w3.org/2000/svg" xmlns:xlink="http://www.w3.org/1999/xlink" 
	 width="800px" height="800px" viewBox="0 0 256 253" enable-background="new 0 0 256 253" xml:space="preserve">
<path d="M177.346,189.387c2.509-2.645,4.611-5.561,6.239-8.613c-0.068,22.38-22.651,39.132-44.286,32.214
	c-14.717-4.747-21.295-20.82-35.876-25.771c-5.222-1.763-10.715-2.17-16.209-2.306c-4.815-0.135-9.223-0.271-12.343-4.544
	c-1.831-2.51-2.713-5.358-2.441-7.935v-5.629c4.273,4.68,9.969,4.883,14.581,5.018h0.068c4.68,0.136,10.105,0.475,14.988,2.102
	c6.307,2.103,11.054,6.782,16.073,11.801c5.629,5.561,11.461,11.258,19.803,13.971c3.73,1.221,7.596,1.831,11.462,1.831
	C159.78,201.527,170.021,197.118,177.346,189.387z M183.585,161.649c0.882,19.735-15.598,35.537-34.18,35.537
	c-3.323,0-6.714-0.475-10.105-1.56c-14.717-4.747-21.295-20.888-35.876-25.771c-5.222-1.696-10.715-2.103-16.209-2.306
	c-4.815-0.204-9.223-0.271-12.343-4.544c-6.307-8.613,1.595-18.462,8.274-23.737c25.475-20.12,51.476-17.852,65.001-14.482
	C164.96,128.975,182.635,141.303,183.585,161.649z M162.764,166.736c0-4.68-5.019-8.478-11.258-8.478
	c-6.239,0-11.258,3.798-11.258,8.478c0,4.68,5.018,8.477,11.258,8.477C157.746,175.213,162.764,171.415,162.764,166.736z M2,69
	c0,13.678,9.625,25.302,22,29.576V233H2v18h252v-18h-22V98.554c12.89-3.945,21.699-15.396,22-29.554v-8H2V69z M65.29,68.346
	c0,6.477,6.755,31.47,31.727,31.47c21.689,0,31.202-19.615,31.202-31.47c0,11.052,7.41,31.447,31.464,31.447
	c21.733,0,31.363-20.999,31.363-31.447c0,14.425,9.726,26.416,22.954,30.154V233H42V98.594C55.402,94.966,65.29,82.895,65.29,68.346
	z M222.832,22H223V2H34v20L2,54h252L222.832,22z"/>
</svg>