<?xml version="1.0" encoding="utf-8"?>
<!-- Uploaded to: SVG Repo, www.svgrepo.com, Generator: SVG Repo Mixer Tools -->
<svg fill="#000000" version="1.1" id="Layer_1" xmlns="http://www.w3.org/2000/svg" xmlns:xlink="http://www.w3.org/1999/xlink" 
	 width="800px" height="800px" viewBox="0 0 256 253" enable-background="new 0 0 256 253" xml:space="preserve">
<path d="M98.5,114.12c-7.9,0-14.5,5.98-14.5,13.88c0,0,0,80.34,0,81c0,7.73,6.12,13.77,13.76,14.07v0.05h74.28v-4.02
	c-5.72,0-10.35-4.63-10.35-10.35s4.63-10.35,10.35-10.35v-84.28H98.5z M109,142h16v-14h9v14h16v9h-16v32h-9v-32h-16V142z
	 M157.67,208.7c0,4.07,1.75,7.73,4.46,10.35h-63.8c-5.72,0.05-10.4-4.62-10.4-10.35c0-5.41,4.24-9.86,9.57-10.26l64.76-0.13
	C159.46,200.93,157.67,204.6,157.67,208.7z M2,69c0,13.678,9.625,25.302,22,29.576V233H2v18h252v-18h-22V98.554
	c12.89-3.945,21.699-15.396,22-29.554v-8H2V69z M65.29,68.346c0,6.477,6.755,31.47,31.727,31.47
	c21.689,0,31.202-19.615,31.202-31.47c0,11.052,7.41,31.447,31.464,31.447c21.733,0,31.363-20.999,31.363-31.447
	c0,14.425,9.726,26.416,22.954,30.154V233H42V98.594C55.402,94.966,65.29,82.895,65.29,68.346z M254,54H2l32-32V2h189v20h-0.168
	L254,54z"/>
</svg>